<?xml version="1.0" encoding="UTF-8"?>
<svg id="Layer_1" data-name="Layer 1" xmlns="http://www.w3.org/2000/svg" xmlns:xlink="http://www.w3.org/1999/xlink" viewBox="0 0 400 400">
  <defs>
    <style>
      .cls-1 {
        fill: #fff;
      }

      .cls-2 {
        fill: none;
      }

      .cls-3 {
        clip-path: url(#clippath);
      }
    </style>
    <clipPath id="clippath">
      <circle class="cls-2" cx="200" cy="200" r="190.11"/>
    </clipPath>
  </defs>
  <path class="cls-1" d="M200,1C90.27,1,1,90.27,1,200s89.27,199,199,199,199-89.27,199-199S309.73,1,200,1ZM200,381.22c-99.92,0-181.22-81.29-181.22-181.22S100.08,18.78,200,18.78s181.22,81.29,181.22,181.22-81.29,181.22-181.22,181.22Z"/>
  <g class="cls-3">
    <path class="cls-1" d="M489.25,237.9c-.86-1.29-2.47-1.93-4.83-1.93-11.82,0-224.69-.75-231.46-2.26-6.77-1.5-12.57-4.19-17.41-8.06-4.83-3.87-10.26-9.78-16.28-17.73l-41.07-56.54,58.8-29.52,27.08-49.96-3.87-6.45-106.37,54.8-17.08,49.96,42.43,62.92c-4.63.56-9.53,1.02-14.71,1.39-13.75.97-187.62,1.45-200.3,1.45-3.87,0-5.8,2.47-5.8,7.41v49.96c0,2.15.43,3.82,1.29,5,.86,1.18,2.58,1.77,5.16,1.77,8.17,0,178.49-.32,189.67-.97,11.17-.64,20.09-1.61,26.75-2.9l18.5-33.69c5.07,6.17,10.56,11.61,16.48,16.28,8.7,6.88,18.54,12.14,29.49,15.79,10.96,3.66,226.25,5.48,238.71,5.48,2.14,0,3.71-.64,4.67-1.93.97-1.29,1.45-3.11,1.45-5.48v-49c0-2.58-.43-4.51-1.29-5.8Z"/>
  </g>
</svg>