<?xml version="1.0" encoding="UTF-8"?>
<svg id="Layer_1" xmlns="http://www.w3.org/2000/svg" version="1.1" viewBox="0 0 315 500">
  <!-- Generator: Adobe Illustrator 29.6.1, SVG Export Plug-In . SVG Version: 2.1.1 Build 9)  -->
  <defs>
    <style>
      .st0 {
        fill: #ff5c35;
      }

      .st1 {
        fill: #00c1de;
      }
    </style>
  </defs>
  <path class="st1" d="M313.36,277.03c-31.86,29.17-76.75,68.35-150.77,68.35H1.64v-83.6c25.49-8.02,32.57-26.91,32.57-59.48v-80.24C34.21,55.51,79.99,5,155.99,5c63.3,0,110.5,38.23,110.5,101.49,0,41.54-20.77,74.58-47.67,94.41l-61.88-49.56c9.91-9.44,19.82-19.82,19.82-33.99,0-16.52-9.91-26.91-24.55-26.91-16.05,0-27.38,9.44-27.38,31.15v69.39c0,36.35-17.46,62.78-42.01,72.27h73.16c50.65,0,75.95-20.16,93.84-37.29l63.53,51.07Z"/>
  <g>
    <path class="st0" d="M85.47,417.52c6.31,11.07,11.66,24.64,11.66,32.13,0,2.38-.36,2.98-1.19,4.05-3.33,4.05-10.12,6.31-18.45,6.31-15.59,0-20.23-6.55-20.23-17.49,0-4.05.71-7.74,1.67-11.9l-12.97-2.02c-3.21,5.47-5.35,14.76-5.35,21.9,0,18.09,12.5,30.94,32.61,30.94,16.78,0,27.37-5.95,34.39-16.3,2.5-3.93,4.64-10.35,4.64-17.38,0-18.33-7.02-31.89-8.93-34.99l-17.85,4.76Z"/>
    <path class="st0" d="M71.78,406.58c5.83,0,9.64-3.69,9.64-9.76s-3.81-10.12-9.64-10.12c-5.47,0-9.52,3.93-9.52,10.12s4.05,9.76,9.52,9.76Z"/>
    <polygon class="st0" points="112.9 377.78 116.59 464.3 133.61 464.3 130.04 376.59 112.9 377.78"/>
    <path class="st0" d="M160.57,390.51c5.83,0,9.64-3.69,9.64-9.76s-3.81-10.12-9.64-10.12c-5.47,0-9.52,3.93-9.52,10.12s4.05,9.76,9.52,9.76Z"/>
    <path class="st0" d="M189.37,442.04c0-17.85-13.45-33.32-26.18-39.39l-15.35,11.9c15.23,7.62,25.23,17.85,25.47,25.82-3.81,1.19-9.04,1.67-13.57,1.67-6.66,0-19.16-.71-24.4-2.98l2.38,21.18c3.93,2.38,9.88,4.05,18.33,4.05,14.16,0,25.35-3.33,31.78-10,1.07-2.86,1.55-8.45,1.55-12.26Z"/>
    <path class="st0" d="M274.28,432.4l-2.62-55.82-17.14,1.19,2.62,51.65c.59,9.4-3.09,12.61-11.42,12.61-.02,0-.03,0-.05,0-.02,0-.05,0-.08,0h-8.09c-2.62-23.68-16.19-28.92-23.8-28.92-10.35,0-22.85,9.16-22.85,25.82,0,11.78,5.95,24.87,28.32,25.35-4.28,7.97-12.62,11.78-22.37,11.78-9.16,0-13.92-1.9-17.61-3.81l-3.09,13.92c6.78,7.38,17.38,8.81,23.68,8.81,15.71,0,31.06-12.38,36.3-30.7h9.64c19.87,0,29.87-9.64,28.56-31.89ZM220.13,442.04c-13.09,0-15.23-4.05-15.23-7.02,0-2.62,2.14-4.88,5.95-4.88,4.05,0,8.45,3.57,10.35,11.9h-1.07Z"/>
  </g>
</svg>