<?xml version="1.0" encoding="UTF-8"?><svg id="Layer_1" xmlns="http://www.w3.org/2000/svg" viewBox="0 0 502 502"><defs><style>.cls-1{fill:#ed3f1c;}</style></defs><path class="cls-1" d="M380.74,130.74l-97.31-97.31h0L251,1l-32.44,32.44h0l-64.87,64.87-32.44,32.44,32.44,32.44,64.87,64.87.02.02-97.33,97.33,97.3,97.3v78.3s64.88,0,64.88,0v-78.3s0,0,0,0l97.3-97.3-97.33-97.33,97.33-97.33ZM186.13,130.74l64.87-64.87,64.87,64.87-64.87,64.87-64.87-64.87ZM251.02,390.24h-.03l-64.84-64.84,64.86-64.86,64.86,64.86-64.84,64.84Z"/></svg>